<svg width="108" height="38" viewBox="0 0 108 38" fill="none" xmlns="http://www.w3.org/2000/svg">
<path d="M0.107117 27.8979C0.483983 30.9291 1.78854 33.4143 4.4266 35.1239C6.07902 36.2013 7.91986 36.8046 9.86218 37.1207C10.297 37.1925 10.7174 37.25 10.9638 37.2787C7.5865 37.2787 4.03522 37.2787 0.469488 37.2787C0.353529 37.2787 0.23757 37.3218 0.107117 37.3505C0.107117 34.2045 0.107117 31.044 0.107117 27.8979Z" fill="#535353"/>
<path d="M27.3284 13.6473C27.3284 17.4829 27.2705 21.3042 27.343 25.1254C27.4299 29.4639 24.8064 31.9491 21.2696 32.6818C18.8925 33.1702 16.5153 33.1846 14.2106 32.337C11.7755 31.4463 10.5434 29.5931 10.3115 27.0935C10.181 25.657 10.1665 24.1917 10.1665 22.7407C10.152 15.6585 10.1665 8.59062 10.1665 1.50837C10.1665 0.459678 10.1665 0.459676 11.2537 0.459676C16.3124 0.459676 21.3711 0.474044 26.4298 0.445312C27.14 0.445312 27.343 0.632064 27.343 1.35035C27.314 5.45891 27.3284 9.55311 27.3284 13.6473Z" fill="#535353"/>
<path d="M42.8815 26.6334C44.3165 26.8488 45.6065 27.1793 46.911 27.2224C49.2737 27.3229 51.6509 27.3516 53.999 27.2224C57.014 27.0643 59.855 26.188 62.493 24.7227C65.4935 23.0707 67.9721 20.9159 69.1896 17.5974C69.3346 17.1952 69.4505 16.7785 69.5955 16.3188C69.5955 23.0132 69.5955 29.6501 69.5955 36.3014C69.5955 37.2783 69.5955 37.2783 68.6388 37.2783C60.3768 37.2783 52.1002 37.2783 43.8381 37.2783C42.8815 37.2783 42.8815 37.2783 42.8815 36.3158C42.8815 33.3565 42.8815 30.3972 42.8815 27.4378C42.8815 27.1793 42.8815 26.9207 42.8815 26.6334Z" fill="#535353"/>
<path d="M42.8815 12.0383C42.8815 9.5674 42.896 7.09652 42.867 4.62563C42.8525 3.96481 43.0844 3.80679 43.7077 3.80679C46.2008 3.79242 48.6794 3.90735 51.0856 4.64C56.5067 6.29204 59.2027 10.6161 58.449 16.19C57.8692 20.4422 55.4051 23.0711 51.1871 23.9618C49.4477 24.3353 47.7083 24.3353 45.9689 23.9043C44.4179 23.5164 43.4468 22.5827 43.1134 21.0168C42.983 20.3847 42.8815 19.7239 42.867 19.0774C42.867 16.7358 42.8815 14.3799 42.8815 12.0383Z" fill="#535353"/>
<path d="M80.1622 25.2688C80.1622 22.7261 80.1912 20.1834 80.1477 17.6407C80.1332 16.9224 80.3797 16.75 81.0754 16.75C83.8874 16.7787 86.6994 16.6925 89.4535 17.3534C91.6567 17.8849 93.6569 18.833 95.005 20.7293C97.4111 24.1196 96.9908 30.4835 91.8016 32.5522C89.9463 33.2992 88.0329 33.6871 86.0472 33.7733C84.3368 33.8451 82.6264 33.8594 80.9305 33.9313C80.3507 33.96 80.1623 33.7445 80.1768 33.1843C80.1768 30.5554 80.1622 27.9121 80.1622 25.2688Z" fill="#535353"/>
<path d="M90.7725 0.473858C95.5558 0.473858 100.701 0.473858 105.833 0.473858C106.05 0.473858 106.311 0.402031 106.485 0.488224C106.702 0.588784 106.891 0.789903 107.007 0.991022C107.094 1.13468 107.021 1.36453 107.021 1.56565C107.021 8.79155 107.021 16.0175 107.021 23.229C105.63 18.5314 101.861 16.5777 97.5271 15.371C96.0776 14.9688 94.5702 14.782 93.1787 14.5091C93.8019 14.351 94.5412 14.2074 95.2659 13.9919C96.9473 13.5035 98.4983 12.7708 99.8318 11.6072C102.658 9.12196 101.745 5.28634 99.5274 3.43318C97.643 1.85296 95.3674 1.23524 93.0192 0.80427C92.164 0.631882 91.2943 0.545686 90.7725 0.473858Z" fill="#535353"/>
<path d="M80.1623 8.5335C80.1623 7.22623 80.1623 5.91896 80.1623 4.61169C80.1623 4.23818 80.2057 3.9365 80.6986 3.95087C82.9598 3.99396 85.25 3.74975 87.4677 4.41057C88.2069 4.62605 88.9461 4.91336 89.6274 5.28687C92.1495 6.66597 92.0335 10.3148 89.8013 11.737C88.3084 12.6852 86.6415 13.0012 84.9311 13.1161C83.5686 13.2023 82.1915 13.1161 80.829 13.1449C80.3072 13.1592 80.1478 12.9581 80.1478 12.4697C80.1767 11.1624 80.1623 9.85514 80.1623 8.5335Z" fill="#535353"/>
<path d="M69.61 11.2627C68.3489 6.37839 64.7977 3.89314 60.4492 2.24109C57.6807 1.17804 54.7673 0.703971 52.1872 0.474121C57.4053 0.474121 63.0003 0.474121 68.5809 0.474121C69.61 0.474121 69.61 0.474123 69.61 1.50845C69.61 4.72635 69.61 7.94424 69.61 11.2627Z" fill="#535353"/>
<path d="M107.021 27.4814C107.021 30.5844 107.007 33.5581 107.036 36.5174C107.036 37.1351 106.818 37.2932 106.224 37.2932C101.441 37.2788 96.6429 37.2788 92.2365 37.2788C95.2804 37.0202 98.5562 36.2157 101.528 34.4488C104.224 32.8542 106.268 30.7281 107.021 27.4814Z" fill="#535353"/>
<path d="M27.3575 33.2129C27.3575 34.5202 27.343 35.6263 27.3575 36.7325C27.372 37.3502 26.9371 37.2784 26.5458 37.2784C23.4004 37.2784 20.255 37.2784 17.269 37.2784C20.8493 36.9049 24.1976 35.5114 27.3575 33.2129Z" fill="#535353"/>
</svg>
