<svg width="124" height="43" viewBox="0 0 124 43" fill="none" xmlns="http://www.w3.org/2000/svg">
<path d="M0 31.9907C0.435329 35.521 1.94223 38.4156 4.98953 40.4066C6.89828 41.6615 9.02469 42.3642 11.2683 42.7323C11.7706 42.816 12.2562 42.8829 12.5408 42.9163C8.6396 42.9163 4.53747 42.9163 0.418585 42.9163C0.284638 42.9163 0.150691 42.9665 0 43C0 39.3191 0 35.6549 0 31.9907Z" fill="#535353"/>
<path d="M31.4609 15.3763C31.4609 19.8436 31.3939 24.2942 31.4776 28.7447C31.5781 33.7977 28.5475 36.6922 24.4621 37.5455C21.7162 38.1144 18.9703 38.1311 16.3081 37.144C13.4952 36.1066 12.072 33.9482 11.8041 31.037C11.6534 29.3638 11.6367 27.6572 11.6367 25.9673C11.6199 17.7187 11.6367 9.48677 11.6367 1.23813C11.6367 0.0167315 11.6367 0.0167315 12.8924 0.0167315C18.7359 0.0167315 24.5793 0.033463 30.4228 0C31.2432 0 31.4776 0.21751 31.4776 1.05409C31.4441 5.8393 31.4609 10.6078 31.4609 15.3763Z" fill="#535353"/>
<path d="M49.4265 30.5016C51.0841 30.7525 52.5743 31.1374 54.0812 31.1876C56.8104 31.3047 59.5563 31.3381 62.2688 31.1876C65.7514 31.0035 69.0331 29.9829 72.0804 28.2763C75.5463 26.3522 78.4094 23.8424 79.8158 19.9774C79.9833 19.509 80.1172 19.0238 80.2847 18.4883C80.2847 26.2852 80.2847 34.0152 80.2847 41.7619C80.2847 42.8996 80.2847 42.8996 79.1796 42.8996C69.6358 42.8996 60.0754 42.8996 50.5316 42.8996C49.4265 42.8996 49.4265 42.8996 49.4265 41.7786C49.4265 38.3319 49.4265 34.8852 49.4265 31.4385C49.4265 31.1541 49.4265 30.8529 49.4265 30.5016Z" fill="#535353"/>
<path d="M49.4265 13.5191C49.4265 10.6413 49.4433 7.76343 49.4098 4.88561C49.3931 4.11596 49.661 3.93191 50.3809 3.93191C53.2608 3.91518 56.1239 4.04903 58.9033 4.90234C65.1653 6.82647 68.2796 11.8627 67.409 18.3545C66.7392 23.307 63.8929 26.3689 59.0205 27.4062C57.0113 27.8413 55.0021 27.8413 52.9929 27.3393C51.2013 26.8876 50.0795 25.8 49.6944 23.9763C49.5437 23.2401 49.4265 22.4704 49.4098 21.7175C49.4098 18.9903 49.4265 16.2463 49.4265 13.5191Z" fill="#535353"/>
<path d="M92.4906 28.9288C92.4906 25.9673 92.5241 23.0058 92.4739 20.0443C92.4571 19.2078 92.7418 19.007 93.5454 19.007C96.7937 19.0405 100.042 18.9401 103.223 19.7097C105.768 20.3288 108.079 21.4331 109.636 23.6416C112.415 27.5903 111.93 35.0023 105.936 37.4117C103.792 38.2817 101.582 38.7334 99.2884 38.8338C97.3127 38.9175 95.337 38.9342 93.378 39.0179C92.7083 39.0513 92.4906 38.8004 92.5074 38.1478C92.5074 35.0692 92.4906 32.0074 92.4906 28.9288Z" fill="#535353"/>
<path d="M104.747 0.0501653C110.272 0.0501653 116.216 0.0501653 122.143 0.0501653C122.394 0.0501653 122.696 -0.0334923 122.897 0.0668968C123.148 0.184017 123.365 0.418259 123.499 0.6525C123.6 0.819815 123.516 1.08752 123.516 1.32176C123.516 9.73771 123.516 18.1537 123.516 26.5529C121.909 21.0817 117.555 18.8062 112.549 17.4007C110.875 16.9323 109.134 16.7148 107.526 16.3969C108.246 16.2128 109.1 16.0455 109.937 15.7945C111.879 15.2257 113.671 14.3723 115.211 13.0171C118.476 10.1225 117.422 5.65522 114.86 3.49686C112.683 1.65639 110.054 0.936936 107.342 0.43499C106.337 0.234212 105.333 0.133823 104.747 0.0501653Z" fill="#535353"/>
<path d="M92.4906 9.43659C92.4906 7.91402 92.4906 6.39145 92.4906 4.86888C92.4906 4.43386 92.5408 4.0825 93.1101 4.09923C95.7221 4.14943 98.3675 3.86499 100.929 4.63464C101.783 4.88562 102.637 5.22025 103.424 5.65526C106.337 7.26149 106.203 11.5113 103.625 13.1677C101.9 14.272 99.9749 14.6401 97.9992 14.7739C96.4253 14.8743 94.8347 14.7739 93.2608 14.8074C92.658 14.8241 92.4738 14.5899 92.4738 14.021C92.5073 12.4817 92.4906 10.9592 92.4906 9.43659Z" fill="#535353"/>
<path d="M80.2847 12.5988C78.828 6.9101 74.7258 4.01555 69.7028 2.09142C66.5048 0.853292 63.1394 0.301152 60.1591 0.0334473C66.1867 0.0334473 72.6497 0.0334473 79.0959 0.0334473C80.2847 0.0334473 80.2847 0.0334473 80.2847 1.23812C80.2847 5.00271 80.2847 8.75057 80.2847 12.5988Z" fill="#535353"/>
<path d="M123.516 31.4887C123.516 35.1027 123.499 38.5661 123.533 42.0128C123.533 42.7323 123.282 42.9163 122.595 42.9163C117.07 42.8996 111.528 42.8996 106.438 42.8996C109.954 42.5984 113.738 41.6615 117.17 39.6035C120.285 37.763 122.629 35.2868 123.516 31.4887Z" fill="#535353"/>
<path d="M31.4776 38.1813C31.4776 39.7039 31.4609 40.9922 31.4776 42.2806C31.4944 43 30.9921 42.9164 30.54 42.9164C26.9067 42.9164 23.2733 42.9164 19.8242 42.9164C23.9598 42.4646 27.8275 40.8416 31.4776 38.1813Z" fill="#535353"/>
</svg>
