<svg width="184" height="80" viewBox="0 0 184 80" fill="none" xmlns="http://www.w3.org/2000/svg">
<path d="M109.712 63.1222C108.914 62.3177 103.537 56.7439 101.899 54.7327C105.523 54.1437 107.871 51.5866 107.871 48.7279C107.871 46.0846 105.827 43.9154 102.812 43.2546C101.493 42.9529 99.9711 42.8667 97.0286 42.8667H92.6801V64.645H96.9851V55.1637C96.9851 55.1637 102.595 61.7575 103.131 62.3608C103.87 63.1653 104.638 63.7399 105.363 64.1278C106.189 64.5444 106.798 64.645 108.711 64.645H111.48C110.755 64.0991 110.349 63.7687 109.712 63.1222ZM97.5504 53.368C97.4345 53.368 97.1591 53.368 96.9996 53.3536V45.352C97.1591 45.3376 97.5359 45.3376 97.7534 45.3376C101.406 45.3376 103.247 46.6161 103.247 49.1301C103.247 51.5004 101.015 53.368 97.5504 53.368Z" fill="#535353"/>
<path d="M133.918 63.6975V53.4548H129.671V61.672C128.758 62.0742 127.729 62.261 126.468 62.261C121.713 62.261 118.626 58.9138 118.626 53.9145C118.626 48.7573 121.902 45.3383 126.859 45.3383C128.845 45.3383 130.874 45.9273 132.628 47.0765V43.011C130.657 42.5082 128.903 42.3071 127.134 42.3071C119.336 42.3071 113.814 47.2058 113.814 54.1013C113.814 60.7382 118.872 65.249 126.279 65.249C128.859 65.2346 131.657 64.6744 133.918 63.6975Z" fill="#535353"/>
<path d="M174.562 65.2345C180.012 65.2345 183.36 62.6774 183.331 58.3821C183.288 55.0062 181.447 53.3541 177.069 51.4866C174.185 50.2512 172.576 49.6909 172.561 47.8234C172.532 46.2432 173.953 45.1657 176.084 45.1657C178.026 45.1657 180.128 45.726 181.809 47.062V43.2264C180.055 42.6087 178.026 42.2495 176.214 42.2495C171.387 42.2495 168.184 44.6198 168.227 48.3836C168.242 50.0931 168.851 51.4148 170.126 52.5497C170.967 53.311 171.967 53.8426 174.388 54.8769C177.765 56.3135 179.084 57.1754 179.099 58.9567C179.113 60.9248 177.359 62.2465 174.967 62.2465C173.04 62.2465 170.735 61.5713 168.503 60.422V64.4013C170.503 64.9472 172.576 65.2345 174.562 65.2345Z" fill="#535353"/>
<path d="M151.616 42.1055C144.528 42.1055 139.542 46.7887 139.542 53.5118C139.542 60.436 144.499 65.3059 151.471 65.3059C158.371 65.3059 163.299 60.5078 163.299 53.8134C163.299 46.9467 158.472 42.1055 151.616 42.1055ZM151.558 62.1599C147.384 62.1599 144.383 58.4392 144.383 53.2963C144.383 48.5556 147.355 45.1653 151.471 45.1653C155.501 45.1653 158.414 48.886 158.414 54.0146C158.414 58.6403 155.486 62.1599 151.558 62.1599Z" fill="#535353"/>
<path d="M83.2005 64.645H87.9403L77.0112 42.1484H76.7793L65.8212 64.645H70.0392L72.3728 59.4446H80.8523L83.2005 64.645ZM73.5614 56.8014L76.5908 50.0064L79.6493 56.8014H73.5614Z" fill="#535353"/>
<path d="M0 55.3076C0 64.4154 5.01522 72.3596 12.4511 76.5831L19.684 31.3027C8.43601 33.6155 0 43.4847 0 55.3076ZM29.758 31.3027L24.7282 0H24.6992L24.7137 79.801C39.4695 79.801 49.442 67.5471 49.442 55.3076C49.442 43.4847 40.977 33.6155 29.758 31.3027Z" fill="#535353"/>
</svg>
