<svg width="128" height="43" viewBox="0 0 128 43" fill="none" xmlns="http://www.w3.org/2000/svg">
<path d="M24.5721 23.5696C22.1078 23.4465 19.3619 23.4113 16.8977 23.4113H11.5116L11.3179 25.9969C14.8383 25.9969 18.3234 26.0497 21.8438 25.9969L21.4213 32.9974H10.8075L10.6139 35.759C15.0847 35.759 19.5204 35.6358 23.9912 35.4072L23.6392 42.566H0C1.23212 34.1759 1.67217 25.0823 1.51375 16.5867H24.9241L24.5721 23.5696ZM44.198 23.6224L46.011 29.6027H41.4697L44.198 23.6224ZM49.6722 42.5836H60.3916C56.9945 34.0176 53.791 25.3285 50.7635 16.6043H38.6007C35.1683 23.851 27.9516 37.0254 24.6425 42.5836H35.7844L38.8647 35.759H47.4719C48.264 38.0104 49.0913 40.2618 49.6722 42.5836ZM86.2662 23.5696C83.802 23.4465 81.0561 23.4113 78.5919 23.4113H73.1881L72.9945 25.9969C76.4972 25.9969 80.2816 26.0497 83.802 25.9969L83.3795 32.9974H72.6953C72.5897 36.1811 72.484 39.3823 72.4664 42.5836H61.7118C62.4158 37.7993 63.3487 23.2706 63.2255 16.6043H86.6359L86.2662 23.5696ZM87.1287 42.5836C87.6392 35.1082 88.308 27.9845 88.308 16.6043H98.8691C98.2002 25.0647 97.7426 30.9043 97.7426 42.5836H87.1287ZM127.12 23.6575C124.779 23.4992 122.279 23.4289 118.636 23.4289C118.125 29.0047 117.844 34.6157 117.738 42.5836H107.371C108.11 36.2339 108.497 29.8841 108.55 23.4289C102.53 23.4289 101.369 23.5872 100.084 23.6575L100.436 16.6043H127.472L127.12 23.6575Z" fill="#535353"/>
<path d="M5.94938 2.58561C6.00218 1.79409 6.07259 1.00257 6.10779 0.263824H2.23541C2.1826 2.19864 2.07699 3.86962 1.97138 5.25917C1.90097 6.45524 1.83057 7.45783 1.83057 8.23176C1.83057 9.05845 2.21781 9.88515 3.22111 10.4656C4.08359 10.9757 5.40372 11.2923 7.28711 11.2923C9.92738 11.2923 11.3707 10.6239 12.1628 9.81479C12.9373 9.04086 13.0781 8.10863 13.0957 7.52819C13.1485 5.39989 13.4477 1.31918 13.5357 0.263824H9.57534C9.54014 1.63579 9.45213 4.83703 9.11769 6.93015C9.02969 7.47542 8.88887 7.87997 8.60724 8.14381C8.34322 8.42524 7.93838 8.54836 7.32231 8.54836C6.72385 8.54836 6.31901 8.3197 6.07259 7.91515C5.82617 7.54578 5.73816 7.03569 5.73816 6.45524C5.73816 5.3823 5.84377 3.99275 5.94938 2.58561Z" fill="#535353"/>
<path d="M15.4015 5.52303C15.2783 7.79205 15.1199 9.8324 14.9967 11.0812H18.4642C18.4819 9.04088 18.5699 7.44026 18.6227 6.29696C18.6403 5.82205 18.6579 5.43509 18.6755 5.13607V4.925V4.34455C19.0803 4.96017 19.3619 5.61098 19.6788 6.27937C20.2772 7.58097 20.9637 8.88258 21.6326 10.2018C21.7734 10.4656 21.8966 10.7119 22.1078 11.1164H26.8603C26.8955 9.30472 26.9835 7.49303 27.0891 5.69892C27.1947 3.90482 27.3355 2.11072 27.494 0.299022H23.9208C23.9032 1.28402 23.8856 2.25143 23.8504 3.21884C23.8152 4.30937 23.7624 5.36473 23.692 6.40249L23.6744 6.61356L23.6392 7.26437C23.3399 6.7191 23.0759 6.15624 22.8295 5.5758C22.4951 4.80187 22.143 4.04553 21.7734 3.27161C21.2981 2.28661 20.8229 1.28402 20.33 0.281433H15.5776C15.5776 1.95241 15.5072 3.79928 15.4015 5.52303Z" fill="#535353"/>
<path d="M29.1309 9.7972C29.0957 10.2369 29.0781 10.6591 29.0429 11.0812H33.1441C33.1441 6.26176 33.3377 3.7465 33.6018 0.263824H29.5182C29.5182 4.30935 29.3245 7.10604 29.1309 9.7972Z" fill="#535353"/>
<path d="M38.6887 11.0812H43.2475L48.6337 0.263824H44.6381C44.198 1.42472 43.6876 2.56802 43.1947 3.71132C42.6667 4.92498 42.1386 6.12105 41.681 7.35229C41.5401 7.72167 41.3993 8.09104 41.2409 8.46042C41.1353 8.10863 41.0473 7.75685 40.9593 7.40506C40.6601 6.10346 40.2728 4.80185 39.9032 3.50025C39.5864 2.4273 39.2695 1.35436 39.0055 0.281414H35.0275C35.2739 0.984984 35.5556 1.79409 35.8372 2.58561C36.8229 5.39989 37.791 8.23176 38.6887 11.0812Z" fill="#535353"/>
<path d="M57.9274 2.77909C58.385 2.79668 58.8251 2.79668 59.2827 2.83186L59.4235 0.263824H50.0594C50.077 1.65338 49.989 3.69373 49.8834 5.6989C49.7602 7.84479 49.5841 9.92033 49.4433 11.0988H58.8427L59.0187 8.46042C58.3322 8.4956 57.6986 8.53077 56.9417 8.54836C56.0792 8.58354 55.0759 8.60113 53.703 8.60113H53.4565L53.4741 8.35488L53.5621 7.15881L53.5797 6.94774H53.791H58.0858L58.2442 4.37971C57.9626 4.37971 57.6986 4.3973 57.3993 4.41489C56.8361 4.43248 56.2552 4.45007 55.7272 4.45007H54.0198H53.7734L53.791 4.20382L53.879 3.00775L53.8966 2.79668H54.1078H56.4136C56.8537 2.7615 57.3641 2.7615 57.9274 2.77909Z" fill="#535353"/>
<path d="M64.8273 7.10604C64.8801 5.6989 64.9329 4.29176 65.0385 2.88462L65.0561 2.67355H65.2673H66.2706H66.3234C67.2915 2.67355 68.33 2.67355 68.33 3.78168C68.33 4.29176 68.1012 4.62596 67.7668 4.85462C67.3619 5.13605 66.7987 5.22399 66.3234 5.22399C66.2002 5.22399 66.077 5.20641 65.9362 5.20641H65.901C66.1474 6.15623 66.3938 7.10604 66.6227 8.05586C66.8691 9.07604 67.0979 10.0786 67.3267 11.0812H71.3751C71.2167 10.6239 71.0583 10.1666 70.8823 9.70925C70.5127 8.6539 70.1254 7.61613 69.8086 6.54319L69.7558 6.34971L69.9318 6.27935C70.6183 5.96274 71.1463 5.55819 71.4984 5.03051C71.8328 4.52042 72.0088 3.9048 72.0088 3.16605C72.0088 1.81168 71.3399 1.09052 70.5127 0.703556C69.6502 0.299003 68.6117 0.263824 67.9252 0.263824H61.5182C61.5182 2.07552 61.5006 3.88721 61.4126 5.6989C61.3421 7.49301 61.2013 9.28711 60.9901 11.0812H64.7569C64.7569 9.76202 64.7921 8.44283 64.8273 7.10604Z" fill="#535353"/>
<path d="M80.6689 2.74392C81.0033 2.83187 81.3377 2.91982 81.637 3.04294L81.4257 0.316606C80.9505 0.211071 80.44 0.140714 79.9472 0.0879464C79.4367 0.0351786 78.9263 0 78.3982 0C76.9373 0 75.9164 0.316607 75.2299 0.809106C74.385 1.40714 74.0682 2.25142 74.0682 3.00776C74.0682 4.57321 75.3883 5.59338 76.4092 6.36731C77.1309 6.93017 77.7118 7.38749 77.7118 7.91516C77.7118 8.65391 76.6733 8.65391 76.2332 8.65391C75.7228 8.65391 75.1243 8.53079 74.5258 8.3549C74.0858 8.23177 73.6458 8.09106 73.2761 7.95034L73.5401 10.8877C74.0682 10.9581 74.6491 11.0461 75.2299 11.1164C75.8812 11.1868 76.5501 11.2395 77.1133 11.2395C78.6623 11.2395 79.736 10.8877 80.4224 10.3601C81.3025 9.70927 81.6194 8.77704 81.6194 7.93275C81.6194 6.61356 80.352 5.64615 79.3311 4.87222C78.5919 4.30937 77.9758 3.83446 77.9758 3.32437C77.9758 2.93741 78.275 2.74392 78.6271 2.63839C78.9263 2.56803 79.2431 2.55044 79.4191 2.55044C79.824 2.60321 80.2464 2.65598 80.6689 2.74392Z" fill="#535353"/>
<path d="M83.7316 9.7972C83.6964 10.2193 83.6612 10.6591 83.6436 11.0812H87.692C87.692 6.26176 87.8856 3.7465 88.1496 0.263824H84.1188C84.1188 4.30935 83.9252 7.10604 83.7316 9.7972Z" fill="#535353"/>
<path d="M100.136 1.56544C99.3619 0.703567 98.2178 0.246246 96.7921 0.246246H90.3498C90.3498 3.23642 90.2618 5.52302 90.1562 7.29954C90.0506 8.95293 89.945 10.1666 89.8394 11.0636H95.9824C97.637 11.0636 98.9571 10.4832 99.8724 9.49819C100.823 8.46043 101.333 6.98293 101.333 5.24159C101.333 3.65856 100.893 2.40972 100.136 1.56544ZM96.5633 7.91516C96.0352 8.40766 95.3311 8.58355 94.5743 8.58355C94.4686 8.58355 94.3454 8.58355 94.2222 8.56596C94.1166 8.56596 93.9934 8.54837 93.8702 8.53079L93.6766 8.5132V8.30212L93.9054 3.06053V2.88463L94.0814 2.84946C94.2222 2.81428 94.3806 2.81428 94.5215 2.79669C94.6623 2.79669 94.8031 2.7791 94.9615 2.7791C95.7888 2.7791 96.4048 3.00776 96.8097 3.4299C97.2145 3.86963 97.4081 4.48526 97.4081 5.32954C97.4257 6.61356 97.0913 7.42266 96.5633 7.91516Z" fill="#535353"/>
<path d="M113.408 5.82204C112.739 3.97517 112.088 2.11071 111.454 0.246246H106.579C105.91 1.68857 104.924 3.62338 103.903 5.5582C102.794 7.66891 101.668 9.74444 100.893 11.0812H105.1L106.191 8.61873L106.262 8.47802H106.403H110.345H110.504L110.557 8.63632C110.838 9.44543 111.12 10.2545 111.331 11.0812H115.38C114.711 9.35748 114.059 7.59855 113.408 5.82204ZM107.248 6.06829L108.849 2.42731L109.941 6.06829H107.248Z" fill="#535353"/>
<path d="M126.785 1.56544C126.011 0.703567 124.867 0.246246 123.441 0.246246H116.999C116.999 3.23642 116.911 5.52302 116.805 7.29954C116.7 8.95293 116.576 10.1666 116.488 11.0636H122.649C124.304 11.0636 125.624 10.4832 126.539 9.49819C127.49 8.46043 128 6.98293 128 5.24159C127.982 3.65856 127.56 2.40972 126.785 1.56544ZM123.23 7.91516C122.702 8.42525 121.998 8.58355 121.223 8.58355C121.1 8.58355 120.994 8.58355 120.871 8.56596C120.766 8.56596 120.642 8.54837 120.519 8.53079L120.326 8.5132V8.30212L120.554 3.06053V2.88463L120.73 2.84946C120.871 2.81428 121.012 2.81428 121.171 2.79669C121.311 2.79669 121.452 2.7791 121.593 2.7791C122.42 2.7791 123.036 3.00776 123.441 3.4299C123.846 3.86963 124.04 4.48526 124.04 5.32954C124.075 6.61356 123.74 7.42266 123.23 7.91516Z" fill="#535353"/>
</svg>
